<?xml version="1.0" encoding="utf-8"?>
<!-- Generator: Adobe Illustrator 19.0.0, SVG Export Plug-In . SVG Version: 6.00 Build 0)  -->
<svg version="1.1" baseProfile="tiny" id="Layer_1" xmlns="http://www.w3.org/2000/svg" xmlns:xlink="http://www.w3.org/1999/xlink"
	 x="0px" y="0px" viewBox="-167 290.9 260 260" xml:space="preserve">
<g>
	<path d="M87.2,408.8c-27.7,4.7-47.3,9.3-62.5,15.8c1.5-9.9,2.6-21.5,3.3-35.3c-6.4,4.1-11.9,7.9-16.9,11.5
		c0.8-19.1-3.8-32.8-8.9-47.5c-9.9,8.4-17.9,16.9-24.3,25.5c-3.9-12.1-9-23.7-14.6-34.2c-5.6,10.5-10.7,22.1-14.6,34.3
		c-6.4-8.7-14.4-17.3-24.4-25.7c-6.8,16.8-9.3,32.6-9,47.3c-5.1-3.7-10.7-7.4-17-11.3c0.7,13.8,1.7,25.3,3.2,35.3
		c-15.2-6.5-35-11.1-62.7-15.8c40.4,102.2,91.6,79.1,123.8,92C-4.3,488,46.8,511,87.2,408.8z M20.4,402.7c-0.5,9.4-1.1,17.7-2,25.1
		c-5.1,2.6-9.6,5.5-13.8,8.9c2.9-8.5,5.1-17.7,6.1-27.5C13.7,407.1,16.9,405,20.4,402.7z M0.6,440c-8.5,7.8-15.5,17.7-22.6,30.8
		c5.7-13.6,8.2-28,8.2-42.4c4.6-4.6,10.6-9.5,19-15.4C4.9,422,3.4,431,0.6,440z M-17.9,465.3c5.3-8.4,10.7-14.9,16.8-20.1
		c-0.7,1.9-1.4,3.8-2.2,5.7c-9.1,21.7-23.4,37.9-30.2,45.6c-0.4,0.4-0.7,0.8-1,1.1C-29.4,486.3-23.8,474.7-17.9,465.3z M-35.4,497.3
		c1.5-7.4,2.7-14.2,3.6-20.4c0.8-5.6,1.5-11.3,1.9-16.9c2.1-10.4,5.1-18.8,12.3-27.3c0.3-0.3,0.6-0.6,0.8-1
		c0.6,15.5-1.9,29.9-7.5,42.8C-28,481.4-31.7,489-35.4,497.3z M-2.5,370.9c4.6,11.4,7.1,22.8,7.7,34.3c-8.1,6.1-14.3,11.4-19,16.6
		c-0.5-11.5-2.5-23-5.5-34.1C-14.6,382-8.9,376.4-2.5,370.9z M-18.3,416.9c0.5,3,0.8,5.9,1.1,8.8c-6.9,8.8-10.1,17.6-12.5,29.4
		c0.7-14.5-0.5-29.1-4.7-43.2c2.8-6.4,6.3-12.5,10.6-18.4C-21.3,401.4-19.4,409.3-18.3,416.9z M-36.6,363.4
		c3.9,7.3,7.2,14.7,10,22.2c-4.2,6.7-7.5,13.4-10,20.3c-2.5-6.9-5.8-13.6-10-20.2C-43.8,378.2-40.5,370.7-36.6,363.4z M-70.8,370.9
		c6.5,5.5,12.2,11.2,17,17c-3.1,11.6-5.1,23.6-5.5,35.6c-5-5.9-11.2-12-19.1-18.2C-77.9,393.7-75.4,382.2-70.8,370.9z M-64.3,424.7
		c1.7,1.7,3.3,3.3,4.8,5c0.2,14.2,2.8,28.4,8.6,41.9c-7.2-13.4-14.3-23.6-23-31.5c-2.8-9.1-4.3-18.1-4.6-27.2
		C-73.1,416.8-68.4,420.7-64.3,424.7z M-38.7,497.7c-0.3-0.4-0.6-0.7-1-1.1c-6.8-7.8-21.1-23.9-30.2-45.6c-0.8-1.9-1.5-3.8-2.2-5.7
		c6.1,5.2,11.5,11.6,16.8,20.1C-49.4,474.7-43.9,486.3-38.7,497.7z M-84,408.9c1,9.9,3.2,19.1,6.2,27.7c-4.2-3.3-8.7-6.3-13.9-8.9
		c-0.9-7.4-1.5-15.6-2-25.1C-90.3,404.8-87,406.9-84,408.9z M-59.7,495.5c-13.2-1.6-28.2-3.5-43.1-13.5
		c-17.1-11.5-31.3-31.9-43.4-62.4c19.3,3.3,32.7,6.3,43.3,9.7c2,0.6,3.9,1.3,5.8,2c6.1,30.8,20.1,45.4,57.9,68.2
		C-45.5,497.3-52.4,496.4-59.7,495.5z M-65.3,480.9c-7.4-6.2-12.7-12.3-16.6-19.2c-4.4-7.8-7.1-16.7-8.9-27.9
		c5.8,2.5,10.7,5.4,15.2,8.6c11.5,28.9,31.1,49.3,37.8,57.1c0,0,0,0.1,0.1,0.1C-50.2,492.3-58.7,486.4-65.3,480.9z M-48.9,474.5
		c-5.4-12.5-7.9-26.4-7.5-41.3c3.3,4,6,8.1,8.3,12.4c7.2,13.6,8.3,26.6,9.5,40.4c0.3,3.8,0.7,7.8,1.1,11.8
		C-41.2,489.9-45,481.7-48.9,474.5z M-36.9,499.1c-3.1-24.8-0.9-47.3-19.2-71.6c0.3-3.5,0.7-7,1.2-10.6c1.2-7.6,3.1-15.5,5.6-23.3
		c1.6,2.2,3,4.4,4.4,6.6c6,9.7,9.9,20,12.1,31.2c4.5,23,0.6,47.3-3.8,68.3C-36.8,499.5-36.8,499.3-36.9,499.1z M-35.4,499.6
		c6.7-7.9,26.3-28.2,37.9-57.2c4.4-3.3,9.4-6.1,15.1-8.6c-1.8,11.2-4.5,20.1-8.9,27.9c-3.9,6.9-9.2,12.9-16.6,19.2
		C-14.6,486.4-23.1,492.2-35.4,499.6L-35.4,499.6z M29.6,482c-14.9,10-29.9,11.9-43.1,13.5c-7.4,0.9-14.4,1.8-20.6,4
		c37.8-22.8,51.8-37.4,57.9-68.2c1.9-0.7,3.8-1.3,5.8-2c10.6-3.4,24-6.3,43.3-9.7C60.9,450.1,46.7,470.5,29.6,482z"/>
</g>
</svg>
