<svg xmlns="http://www.w3.org/2000/svg" viewBox="0 0 79.8 42"><path d="M13.3 27.3c-1.2-1.3-2.9-2.1-4.7-2.1-3.5 0-6.3 3-6.3 6.4C2.3 35 5.1 38 8.6 38c1.8 0 3.5-.8 4.7-2.1V38c-1.3 1-3 1.5-4.6 1.5-4.4 0-8.1-3.6-8.1-8 0-4.5 3.6-8.1 8.1-8.1 1.7 0 3.3.5 4.6 1.5v2.4zm5 10.5h4.3v1.6h-6V23.9h1.7v13.9zm8 1.6h-1.7V23.9h1.7v15.5zm3.5-15.5h8.1v1.6h-6.3v4.6h6.1v1.6h-6.1v6.1h6.3v1.6h-8.1V23.9zm11.4-.7l12.1 12.7v-12H55v16.2L43 27.5v12h-1.7V23.2zm21.5 16.2H61V25.5h-3.8v-1.6h9.3v1.6h-3.8v13.9zm5.9-15.5h8.1v1.6h-6.3v4.6h6.1v1.6h-6.1v6.1h6.3v1.6h-8.1V23.9z" fill="#7E355A"/><path d="M13.3 9.1C12.1 7.8 10.3 7 8.6 7c-3.5 0-6.3 3-6.3 6.4 0 3.4 2.8 6.4 6.3 6.4 1.8 0 3.5-.8 4.7-2.1V20c-1.3 1-3 1.5-4.6 1.5-4.4 0-8.1-3.6-8.1-8C.6 9 4.2 5.4 8.7 5.4c1.7 0 3.3.5 4.6 1.5v2.2zm4.8 7.7l-1.9 4.4h-1.9l7.2-16.3 7 16.3h-1.9l-1.8-4.4h-6.7zM21.5 9l-2.7 6.2h5.3L21.5 9zm10 12.2h-1.7V5.7H32c2.9 0 5.7.8 5.7 4.3 0 2.4-1.5 4.1-3.9 4.3l4.9 7h-2.1L32 14.4h-.4v6.8zm0-8.3h.5c2 0 3.9-.4 3.9-2.8 0-2.6-1.9-2.8-4-2.8h-.5v5.6zm12.8 8.3h-1.7V7.3h-3.8V5.7h9.3v1.6h-3.8v13.9zm7.5-4.4l-1.9 4.4H48l7.2-16.3 7 16.3h-1.9l-1.8-4.4h-6.7zM51.5 3c.5-.8 1.1-1.6 2.1-1.6.6 0 1.2.2 1.7.5.5.2.9.5 1.3.5.6 0 .9-.5 1.2-1l1 .8c-.4.9-1.2 1.7-2.2 1.7-.5 0-1-.2-1.5-.5-.5-.2-1-.5-1.4-.5-.6 0-.8.5-1 .9L51.5 3zm3.6 6l-2.7 6.2h5.3L55.1 9zm23.7 4.5c0 4.5-3.7 8-8.1 8-4.4 0-8.1-3.5-8.1-8s3.7-8.1 8.1-8.1c4.5 0 8.1 3.6 8.1 8.1zm-14.4 0c0 3.5 2.8 6.4 6.4 6.4s6.4-2.9 6.4-6.4c0-3.5-2.8-6.4-6.4-6.4s-6.4 2.8-6.4 6.4z" fill="#FFF"/></svg>