<svg xmlns="http://www.w3.org/2000/svg" viewBox="0 0 579.2 172.8"><path d="M10.4 6.2H30c20.3 0 33.9 15.1 33.9 35.1 0 19.7-14 34.9-34 34.9H10.4v-70zm13.7 58.1h2.2c16.9 0 23.4-9.3 23.4-23.1 0-15.2-7.8-23.1-23.4-23.1h-2.2v46.2zm59.7 11.9H70.1v-70h13.7v70zm34.8-22.9h.2l15.6-47.1h14.7L121.8 78h-8L87 6.2h14.7l16.9 47.1zM152 6.2h13.7v39.1c0 8.6.7 20.8 12.4 20.8s12.4-12.2 12.4-20.8V6.2h13.7V48c0 17.1-7.3 30-26.1 30S152 65.1 152 48V6.2zm75.1 58.1h19.4v11.9h-33.1v-70h13.7v58.1zM312.4 39v1.8c0 19.8-10.2 37.3-31.9 37.3C259.9 78 247 60.8 247 41.5c0-19.9 13.3-37.1 34.3-37.1 11.9 0 22.4 6 27.8 16.7L297 27.6c-2.8-6.3-8.8-11.1-16-11.1-13.2 0-19.7 13.5-19.7 25S267.8 66 281 66c8.6 0 15.7-7.4 16-15.9h-14.9V39h30.3zM333 61.4l-5.8 14.7h-14.4l27.4-71.8h10.6l26.6 71.8h-14.6l-5.4-14.7H333zm11.9-36.5h-.2L337 50.3h16.7l-8.8-25.4z" opacity=".89" fill="#FFF"/><path d="M10.8 96.4h36.4v7.2H18.6v20.8h27.8v7.2H18.6v27.5h28.6v7.2H10.8V96.4zm80.6 69.9h-7.8V96.4h10.2c13.3 0 25.7 3.5 25.7 19.3 0 10.8-6.8 18.4-17.6 19.3l22.4 31.4h-9.6l-21.2-30.7h-2v30.6zm0-37.6h2.4c8.8 0 17.8-1.7 17.8-12.5 0-11.5-8.5-12.6-17.9-12.6h-2.3v25.1zm39.9-32.3h36.4v7.2h-28.6v20.8h27.8v7.2h-27.8v27.5h28.6v7.2h-36.4V96.4zm100.5 15.3c-5.6-5.8-13.3-9.3-21.4-9.3-15.6 0-28.3 13.5-28.3 28.9s12.8 28.9 28.5 28.9c7.9 0 15.6-3.7 21.2-9.3v9.6c-6.1 4.4-13.5 6.9-21 6.9-19.8 0-36.6-16-36.6-35.9 0-20 16.5-36.5 36.6-36.5 7.8 0 14.7 2.2 21 6.9v9.8zm10.4-15.3h36.4v7.2H250v20.8h27.8v7.2H250v27.5h28.6v7.2h-36.4V96.4zm46.9 0h11.5c12.8 0 23.5 4.6 23.5 18.9 0 5.7-2.1 10.5-6.9 13.6 8.4 2 13.3 9.6 13.3 17.9 0 13.9-11.3 19.5-25.1 19.5h-16.3V96.4zm7.9 30.8h3c8.8 0 16.4-1 16.4-11.9 0-10.6-6.7-11.7-16.3-11.7H297v23.6zm0 31.9h7.8c8.8 0 18-2.1 18-12.8 0-10.9-10.4-12.4-19-12.4H297v25.2zm42.2-62.7h36.4v7.2H347v20.8h27.8v7.2H347v27.5h28.6v7.2h-36.4V96.4zm121.2-63.3l-5.5 24.1 8-.4c31 0 51.2 25.3 51.2 54.9 0 33.9-23.8 56.8-57.7 56.8-18.7 0-34.7-6.9-47.2-20.9l9.3-26.4c8.2 11.7 21.3 20.5 35.8 20.5 17.3 0 28.4-14.9 28.4-31.2 0-17.2-13.5-31.4-31-31.4-9.1 0-19 4.2-25.5 10.3h-4.8l17.1-82.9h69.1v26.8h-47.2zM567.3 136l-1.4 5.6H544c1.5 3.7 3.8 6.6 6.6 8.7 3.1 2.4 6.6 3.6 10.6 3.6 2.6 0 4.7-.4 6.5-1.2 1.5-.7 3.2-1.9 5-3.7v14.1c-3.9 1.8-7.8 2.7-11.8 2.7-7.3 0-13.8-2.3-19.5-7-5.4-4.5-9.1-10.2-11-17.2h-7.9l1.4-5.6h5.5c-.1-1.1-.2-2.3-.2-3.5 0-.9 0-1.7.1-2.6h-6.8l1.4-5.6h6.2c1.6-7.6 5.2-13.7 10.7-18.6 5.7-5 12.5-7.6 20.3-7.6 5.1 0 9.9 1.3 14.4 3.8l-2.8 12.4c-3.1-2.8-6.9-4.2-11.4-4.2-4.4 0-8.2 1.4-11.4 4.2-3 2.5-5.1 5.9-6.4 10.1h26.7l-1.4 5.6h-26.4c-.1.8-.1 1.5-.1 2.3 0 1.3.1 2.5.3 3.8h24.7z" fill="#6E3859"/></svg>