<svg xmlns="http://www.w3.org/2000/svg" viewBox="0 0 96 38.3" fill="#798082"><path d="M92 11.5c-.8-2.2-2.5-3.9-4.6-5-3.4-2-7.5-2.3-11.4-1.7-2.9.5-5.8 1.7-7.8 4-1.5 1.7-2.2 3.9-2.2 6.1-.1 2.6 1 5.1 2.9 6.9 2 1.9 4.7 2.9 7.4 3.4 3.5.5 7.2.2 10.5-1.2 2-.9 3.8-2.3 4.8-4.3 1.3-2.6 1.4-5.6.4-8.2zm-3.6 6.2c-.6 1.9-2.1 3.3-3.9 4.2-2.2 1.1-4.8 1.3-7.2 1-2.4-.3-4.7-1.4-6.2-3.3-.6-.8-1-1.8-1.2-2.7-.2-1.9-.2-3.8.6-5.5.5-1 1.2-1.9 2.2-2.6 2.7-1.8 6-2.2 9.1-1.6 2.1.4 4.2 1.4 5.5 3.2 1.6 2 1.9 4.8 1.1 7.3zM21.5 4.9h5.1L14.9 13c4.1 4 8.1 8 12.2 11.9h-4.9c-3.3-3.4-6.6-6.8-9.9-10.1-1.5 1.1-3 2.1-4.5 3.2v6.9H4.1V4.8h3.7v9.9c4.5-3.2 9.2-6.5 13.7-9.8zm9.3 0h3.7V25h-3.7V4.9zm10.1 0h3.7v9.9l13.8-9.9h5.1L51.8 13 64 24.9c-1.6.1-3.3 0-4.9 0-3.3-3.4-6.6-6.8-9.9-10.1-1.5 1.1-3 2.1-4.6 3.2v6.9h-3.7v-20zm-2.3 26h.9v3.9h-.9v-3.9zm4.5.1h.8v3.3h2.3v.6h-3.1V31zm13.4-.1h.9c.7 1 1.4 1.9 2 2.8v-2.8h.8v4h-.9c-.7-1-1.3-1.9-2-2.8v2.8h-.8v-4zM68 32c-.4-1.1-1.8-1.3-2.8-1-1.5.4-1.8 2.6-.7 3.5.6.6 1.6.3 2.3.4C68 34.5 68.5 33 68 32zm-1 1.9c-.5.7-1.6.6-2.1-.1-.3-.4-.3-.9-.3-1.3.2-.6.7-1.2 1.4-1.1 1.3 0 1.7 1.7 1 2.5zM30.1 31h1.2l1.2 3 1.2-3h1.1v3.9H34V32c-.4 1-.8 1.9-1.2 2.9h-.7c-.4-1-.8-1.9-1.2-2.9v1.4c0 .5 0 1 .1 1.5-.3 0-.6.1-.9.1v-4zm21.5 0h-.9c-.6 1.3-1.2 2.6-1.7 3.9h.9c.1-.3.3-.7.4-1h1.8c.1.3.2.6.4.9.3.2.6 0 1 .1-.7-1.3-1.3-2.6-1.9-3.9zm-1.1 2.3c.2-.5.5-1 .7-1.6.2.5.4 1.1.6 1.6h-1.3z"/></svg>