<svg xmlns="http://www.w3.org/2000/svg" viewBox="0 0 102 38.3" fill="#798082"><path d="M49.3 2v20.5c-3.5 1.1-6.9 1.8-9.9-.5-2.8-2.1-3-5.2-2.2-8.5 1-4.2 4.1-5.2 8.3-4.9V2h3.8zm-4.1 9.1c-2.6-.3-3.8.3-4.2 2.4-.3 1.6-.3 3.3 0 4.9.4 2.3 1.8 2.9 4.2 2.1v-9.4zM5.4 17.4c2-2.7 5.1-3.2 8.1-3.7-.2-3-.8-3.2-6.2-2.2-.2-.5-.5-1-.8-1.7 2.6-1.4 5.2-1.5 7.7-.8 2 .5 3 2 3.1 4 .1 3.1 0 6.2 0 9.4-2.9 1.4-5.7 1.2-8.6.7-1.7-.3-2.6-1.6-3.4-2.9-.3-1-.2-1.9.1-2.8zm8.2-1.7c-1.9-.1-3.3.3-4.1 1.9-.5 1.1-.4 2.2.5 3 1.1.9 2.3.9 3.6.2v-5.1zm19.7 7.4h-3.8v-9c-.1-2.9-1.2-3.6-4.3-2.5v11.5h-3.7V9.6c2.8-1.3 5.7-1.2 8.7-.7 1.6.3 3 1.3 3 3.1.2 3.7.1 7.3.1 11.1zm60.9-9.6c-.7-2.9-1.1-3-6.3-2-.2-.5-.5-1.1-.8-1.8 2.6-1.4 5.2-1.5 7.8-.8 1.9.5 2.9 2 3 3.8.2 3.2 0 6.4 0 9.6-2.8 1.4-5.6 1.3-8.4.8-2.1-.4-3.3-1.8-3.4-3.8-.1-2 .7-3.5 2.7-4.3 1.7-.6 3.5-1 5.4-1.5zm-.1 7.5v-5.1c-1.8-.4-3.2.1-3.9 1.7-.3.8-.3 2 .2 2.8.8 1.3 2.2 1 3.7.6zm-20-.7c.2.7.4 1.3.6 1.9-.3.2-.4.5-.7.5-1.9.2-3.8.7-5.7.5-3.8-.3-5.7-3.6-5.4-8.4.3-3.9 2.5-6.2 6.2-6.2 4.2-.1 6.2 2.3 6.1 7.4-2.8.5-5.6.9-8.4 1.4.4 3.7 3 3.8 7.3 2.9zm-7.7-4.9c1.9-.3 3.6-.5 5.2-.8-.2-2.8-1-3.9-2.5-3.9-1.6.1-2.4 1.4-2.7 4.7zm-9.1 7.7h-3.9V9.6c2.2-1.3 4.7-1 7.3-.9-.2.9-.4 1.6-.6 2.2-.9.1-1.7.2-2.8.4v11.8zm22-14.2h3.3v14.2h-3.1m1.3-20.4c1.1 0 2 .7 2 1.7s-.8 1.8-1.9 1.9c-1.1 0-2-.7-2-1.7-.1-1.1.7-1.9 1.9-1.9zM7.5 28.5c.6 0 .8.2 1.2.6.3.5.5 1.1.5 1.9 0 .9-.2 1.6-.5 2.2-.3.5-.8.8-1.4.8-.6 0-1-.3-1.3-.9v3.2h-.8V29c0-.1.1-.2.2-.2l.5-.2M5.8 31v.7c0 .4.1.8.3 1.1.2.3.5.5.9.5s.7-.2 1-.6c.2-.4.4-1 .4-1.7 0-.6-.1-1.1-.3-1.4-.2-.3-.5-.5-.9-.5s-.8-.1-1.1.2c-.2.4-.3 1.2-.3 1.7zm10.6-2.5c.2 0 .3 0 .4.1v.7c-.1-.1-.4-.1-.6-.1-.3 0-.6-.1-.8.2-.2.3-.1 1.2-.1 1.8v2.7h-.7v-5.4h.7m8.4 5.6c-.6 0-1.1-.3-1.5-.8-.4-.5-.6-1.2-.6-2 0-.9.2-1.6.6-2.1.4-.5.9-.8 1.6-.8.6 0 1.1.2 1.5.7.4.5.5 1.2.5 2 0 .9-.2 1.5-.6 2.1-.3.6-.8.9-1.5.9zm.1-4.9c-.4 0-.8.2-1 .6-.3.4-.4.9-.4 1.6 0 .6.1 1.1.4 1.5.3.4.6.6 1 .6s.8-.2 1-.5c.2-.4.4-.9.4-1.5 0-.7-.1-1.2-.4-1.5-.2-.6-.6-.8-1-.8zm9.6-2.4c-.1-.1-.3-.1-.5-.1-.5 0-.7.4-.7 1.1v.8h1v.7h-1v4.6h-.7v-4.6h-.7v-.7h.7v-.9c0-.6.1-1 .4-1.3.3-.3.6-.5 1-.5.2 0 .4 0 .5.1v.8zm8.4 4.7h-3c0 .6.1 1.1.4 1.4.2.3.6.5 1 .5.5 0 .9-.2 1.3-.6v.8c-.4.3-.9.5-1.5.5s-1.1-.2-1.4-.7c-.3-.5-.5-1.2-.5-2.1 0-.8.2-1.5.6-2 .4-.5.8-.8 1.4-.8.6 0 1 .2 1.3.7.3.5.5 1.1.5 1.9v.4zm-.7-.7c0-.5-.1-.9-.3-1.2-.2-.3-.5-.4-.8-.4-.3 0-.6.1-.8.4-.2.3-.4.7-.4 1.1h2.3zm5.9 3v-.9c.4.3.8.5 1.2.5.6 0 .9-.3.9-.8 0-.1 0-.3-.1-.4 0-.1-.1-.2-.2-.2-.1-.1-.2-.1-.3-.2-.1-.1-.2-.1-.4-.2s-.4-.2-.5-.3c-.1-.1-.3-.2-.4-.3-.1-.1-.2-.3-.2-.4 0-.2-.1-.3-.1-.5 0-.3 0-.5.1-.7.1-.2.2-.4.4-.5.2-.1.3-.2.5-.3.2-.1.4-.1.6-.1.4 0 .7.1 1 .2v.9c-.3-.3-.7-.4-1.1-.4-.1 0-.2 0-.3.1-.1 0-.2.1-.3.2l-.2.2c0 .1-.1.2-.1.3 0 .1 0 .3.1.4 0 .1.1.2.2.3.1.1.2.1.3.2s.2.1.4.2.4.2.5.3c.2.1.3.2.4.3.1.1.2.3.2.4.1.2.1.3.1.6s0 .5-.1.7c-.1.2-.2.4-.4.5-.2.1-.3.2-.5.3-.2.1-.4.1-.6.1-.4-.2-.8-.3-1.1-.5zm8 0v-.9c.4.3.8.5 1.2.5.6 0 .9-.3.9-.8 0-.1 0-.3-.1-.4 0-.1-.1-.2-.1-.2-.1-.1-.2-.1-.3-.2-.1-.1-.2-.1-.4-.2s-.4-.2-.5-.3c-.1-.1-.3-.2-.4-.3-.1-.1-.2-.3-.2-.4 0-.2-.1-.3-.1-.5 0-.3 0-.5.1-.7.1-.2.2-.4.4-.5.2-.1.3-.2.5-.3.2-.1.4-.1.6-.1.4 0 .7.1 1 .2v.9c-.3-.3-.7-.4-1.1-.4-.1 0-.2 0-.3.1-.1 0-.2.1-.3.2l-.2.2c0 .1-.1.2-.1.3 0 .1 0 .3.1.4 0 .1.1.2.2.3.1.1.2.1.3.2s.2.1.4.2.4.2.5.3c.2.1.3.2.4.3.1.1.2.3.2.4.1.2.1.3.1.6s0 .5-.1.7c-.1.2-.2.4-.4.5-.2.1-.3.2-.5.3-.2.1-.4.1-.6.1-.5-.2-.9-.3-1.2-.5zm8.6-6.6c-.1 0-.2-.1-.3-.2-.1-.1-.1-.2-.1-.4s0-.3.1-.4c.1-.1.2-.2.3-.2.1 0 .2.1.3.2.1.1.1.2.1.4s0 .3-.1.4c0 .2-.1.2-.3.2zm.4 6.7h-.7v-5.4h.7v5.4zm7.5.2c-.6 0-1.1-.3-1.5-.8s-.6-1.2-.6-2c0-.9.2-1.6.6-2.1.4-.5.9-.8 1.6-.8.6 0 1.1.2 1.5.7.4.5.5 1.2.5 2 0 .9-.2 1.5-.6 2.1-.3.6-.8.9-1.5.9zm.1-4.9c-.4 0-.8.2-1 .6-.3.4-.4.9-.4 1.6 0 .6.1 1.1.4 1.5.3.4.6.6 1 .6s.8-.2 1-.5c.2-.4.4-.9.4-1.5 0-.7-.1-1.2-.4-1.5-.2-.6-.6-.8-1-.8zm9.7-.6c.5 0 .8.1 1 .5.2.4.4.9.4 1.6V34H82v-3.1c0-1.1-.3-1.7-1-1.7-.3 0-.8-.1-1.1.1-.3.2-.1 1.1-.1 1.6V34h-.7v-5.4h.7m9.6 5.5c-.4 0-.8-.1-1-.4-.2-.3-.4-.7-.4-1.2 0-1 .5-1.6 1.4-1.7l1.3-.2c0-.9-.3-1.4-.9-1.4-.5 0-1 .2-1.4.7V29c.4-.3.9-.5 1.5-.5 1 0 1.5.7 1.5 2V34h-.7m0-2.8l-1 .2c-.3.1-.6.2-.7.3-.2.1-.2.4-.2.8 0 .3.1.5.2.6.1.2.3.2.6.2s.8.1 1.1-.2c.2-.3.1-.9.1-1.4v-.5zm7.1 2.7h-.7V26h.7v7.9z"/></svg>