<svg xmlns="http://www.w3.org/2000/svg" viewBox="0 0 126.7 38.3" fill="#798082"><path d="M121.7 15.7h-18.5c-.8 0-.8 0-.7.8.3 1.9 1 3.5 2.5 4.8 1.2 1 2.5 1.6 4 1.9 3.3.7 6.3.3 9-1.9.8-.6 1.4-1.3 2-2.1.2-.4.3-.4.6-.1l.9.6c.2.2.2.3.1.5-1.4 1.9-3.2 3.4-5.4 4.2-3.6 1.3-7.2 1.2-10.6-.6-3.5-1.9-5.3-5-5.1-9.1.2-3.7 2.1-6.3 5.5-7.7 3.3-1.4 6.7-1.4 10 .1 2.9 1.3 4.8 3.5 5.6 6.6l.3 1.5c-.2.2-.2.4-.2.5zm-2.5-1.6c-.5-2-1.4-3.7-3.1-4.8-2.6-1.7-5.4-2.1-8.3-1.3-2.8.8-4.6 2.7-5.4 5.5-.1.6-.1.6.4.6h15.7c.3.1.5.1.7 0zM33.6 6c.5.1 1.1.1 1.6.2 1 .1 1.9.4 2.9.7 1.8.7 2.8 2 3.1 3.9.2 1.5.3 2.9.2 4.4 0 1.8-.1 3.5-.2 5.3 0 .7 0 1.3.2 1.9.3.8.8 1.2 1.7 1.2.6 0 .5.1.5.6v.3c0 .3-.1.4-.4.4h-1.4c-1.2-.1-2-1-2.2-2.3 0-.2-.1-.4-.1-.6-.1 0-.2 0-.2.1-1.5 1.5-3.4 2.4-5.5 2.8-2.2.5-4.4.6-6.6.2-5.1-.9-5.8-6.3-3.7-9.1.8-1.1 1.9-1.6 3.1-2 1.8-.5 3.7-.7 5.6-.8 2.3-.1 4.6-.1 6.9-.2.5 0 .5 0 .5-.5 0-.6-.1-1.3-.2-1.9-.2-.9-.7-1.6-1.6-2.1-.8-.3-1.7-.5-2.6-.6-2-.3-4.1-.3-6.1 0-.5.1-.9.2-1.3.3-1.5.4-2.5 1.4-3.1 2.9-.2.5-.2.5-.7.5h-.9c-.3 0-.4-.1-.3-.4.5-1.9 1.5-3.2 3.2-4.1 1.2-.6 2.5-.9 3.9-1 .2 0 .4-.1.7-.1h3zm6.2 10.2c-.1 0-.1 0 0 0v-.9c0-.8.1-.7-.7-.7-1.6 0-3.1 0-4.7.1-1.7.1-3.4.3-5.1.5-1.4.2-2.7.7-3.7 1.6-1.9 1.7-1.5 5 .6 6.1.5.3 1 .5 1.6.7 1.4.4 2.8.4 4.2.2 1.9-.2 3.7-.9 5.4-1.9 1.2-.8 2-1.9 2.2-3.4 0-.8.1-1.6.2-2.3zM4.4 14.6c.1-.2.1-.5.2-.7.8-3.8 3.2-6.2 6.9-7.3 3.5-1 6.7-.5 9.7 1.7.7.5.7.5.3 1.3-.1.3-.3.6-.4.9l-.6-.6c-1.2-1.2-2.7-1.8-4.4-2.1-1.8-.3-3.5-.1-5.1.7-2.9 1.3-4.3 3.6-4.6 6.7-.2 1.8.2 3.5 1.2 5 1.2 1.9 3 3 5.2 3.4 2.5.5 4.8.1 7-1.3.4-.2.7-.5 1.1-.8.2.5.5 1 .6 1.5 0 .1-.1.3-.2.3-.5.3-1 .7-1.6.9-3 1.4-6.2 1.6-9.3.4-3.1-1.2-5-3.6-5.7-6.8-.1-.4-.1-.7-.2-1.1-.1-.7-.1-1.4-.1-2.1zm66.1 2.3c2.6 2.8 5.1 5.6 7.6 8.4v.1h-2.3c-.1 0-.3-.2-.4-.3-1.3-1.5-2.6-2.9-3.9-4.4-1-1.2-2.1-2.3-3.1-3.5-.2-.2-.4-.3-.7-.3h-6.2c-.5 0-.5 0-.5.5V25c0 .3-.1.5-.4.4h-1.1c-.2 0-.4-.1-.3-.3V7c0-.8 0-.7.7-.7h11.2c.8 0 1.6.1 2.4.2 2.2.3 3.6 2 3.9 4.2.2 1.6-.1 3.1-1.2 4.3-.9 1-2.1 1.5-3.4 1.7-.5.1-1.1.1-1.7.1-.2 0-.4 0-.6.1zm-3.9-9.1h-5.3c-.5 0-.5 0-.5.4v6.5c0 .4 0 .4.5.4h9.3c.7 0 1.4-.1 2-.3.6-.1 1.2-.4 1.6-.9 1.1-1.2 1.3-2.6.8-4s-1.6-2.1-3.1-2.2c-1.8.1-3.5.1-5.3.1z"/><path d="M99.6 10.4c-.3-.3-.6-.5-.9-.8-1.3-1-2.7-1.6-4.3-1.7-2-.2-4 .2-5.7 1.2-2 1.2-3.1 3-3.5 5.3-.4 2.6.1 4.9 1.9 6.9 1.2 1.3 2.6 2.1 4.3 2.4 2.4.5 4.6.2 6.7-1.1.6-.4 1.2-.9 1.8-1.4.3.4.6.7.9 1.2 0 .1 0 .3-.1.3-.4.4-.9.8-1.3 1.1-1.5 1-3.1 1.5-4.9 1.7-2 .2-3.9.1-5.7-.7-3.5-1.6-5.4-4.4-5.7-8.2-.2-1.9.2-3.7 1.2-5.4 1.4-2.4 3.5-3.9 6.3-4.5 3.2-.7 6.2-.2 8.9 1.6.3.2.6.5.9.7.1.1.2.2 0 .4 0 0 0 .1-.1.1-.2.2-.4.6-.7.9zM39.4 6.2H57c.7 0 .7-.1.7.7 0 1 .1.9-.9.9h-4.3c-.6 0-.6 0-.6.6v16.2c0 .9.1.8-.8.8-1 0-1 0-1-1.1v-16c0-.3-.1-.4-.4-.4h-7.8c-.3 0-.5-.1-.8-.3-.5-.5-1.1-.9-1.7-1.4zm42.1 9.7v9.2c0 .2-.1.4-.4.3-.3-.1-.7-.1-1 0-.3.1-.4 0-.4-.3V6.6c0-.2.1-.3.3-.3h1.6M46.8 32.7c-.6 1-1.5 1.2-2.3 1.2-.4 0-1.3 0-2-.6-.5-.4-.7-1.1-.7-1.8 0-1 .5-2.5 2.6-2.5 1.7 0 2.1.8 2.4 1.2l-.6.2c-.1-.4-.4-.7-.7-.8-.4-.2-.9-.2-1.1-.2-.7 0-1.1.1-1.5.6-.4.4-.5 1-.5 1.5 0 .3.1 1.1.5 1.6.5.5 1.2.6 1.6.6.3 0 .6 0 1-.2.2-.1.6-.4.7-.8h.6zm9.2.6c-.6.5-1.3.6-1.8.6-.8 0-1.4-.2-1.9-.6-.4-.4-.8-1-.8-1.8 0-1.3.8-2.5 2.7-2.5 2 0 2.6 1.4 2.6 2.5 0 .6-.3 1.3-.8 1.8zm-1.8-4c-1.6 0-2 1.2-2 2.1 0 .9.5 2.1 2 2.1 1.9 0 2-1.7 2-2.1 0-.9-.5-2.1-2-2.1zm11.3.9c-.1-.1-.1-.3-.3-.4-.3-.3-.8-.5-1.3-.5-.7 0-1.4.2-1.4.8 0 .6.7.7 1 .8.2 0 1.1.2 1.2.3.3.1 1.4.4 1.4 1.3 0 .7-.7 1.4-2.3 1.4-.7 0-1.1-.1-1.4-.3-.5-.2-.7-.6-.8-1l.6-.2c0 .2 0 .4.1.5.3.4.9.6 1.6.6 1.2 0 1.7-.5 1.7-1 0-.3-.2-.5-.4-.6-.3-.2-.6-.2-1.4-.4-.9-.2-1.9-.4-1.9-1.3s1.1-1.2 2-1.2c1.6 0 2 .8 2.1 1l-.5.2zm11.1 3.6H76v-4l-2 4h-.4l-2-4 .1 4h-.6V29h.7l2.1 4 2-4h.7v4.8zm9.7 0H82V29h4v.4h-3.4v1.7h3.1v.4h-3.1v1.8h3.6v.5zm7.1 0h-.6v-4.3h-1.9V29h4.5v.4h-1.9v4.4zm7.3 0h-.6V29h.6v4.8zm9.8-1.1c-.6 1-1.5 1.2-2.3 1.2-.4 0-1.3 0-2-.6-.5-.4-.7-1.1-.7-1.8 0-1 .5-2.5 2.6-2.5 1.7 0 2.1.8 2.4 1.2l-.6.2c-.1-.4-.4-.7-.7-.8-.4-.2-.9-.2-1.1-.2-.7 0-1.1.1-1.5.6-.4.4-.5 1-.5 1.5 0 .3.1 1.1.5 1.6.5.5 1.2.6 1.6.6.3 0 .6 0 1-.2.2-.1.6-.4.7-.8h.6zm8.4-2.5c-.1-.1-.1-.3-.3-.4-.3-.3-.8-.5-1.3-.5-.7 0-1.4.2-1.4.8 0 .6.7.7 1 .8.2 0 1.1.2 1.2.3.3.1 1.4.4 1.4 1.3 0 .7-.7 1.4-2.3 1.4-.7 0-1.1-.1-1.4-.3-.5-.2-.7-.6-.8-1l.6-.2c0 .2 0 .4.1.5.3.4.9.6 1.6.6 1.2 0 1.7-.5 1.7-1 0-.3-.2-.5-.4-.6-.3-.2-.6-.2-1.4-.4-.9-.2-1.9-.4-1.9-1.3s1.1-1.2 2-1.2c1.6 0 2 .8 2.1 1l-.5.2z"/></svg>