<svg xmlns="http://www.w3.org/2000/svg" viewBox="0 0 130.8 38.3" fill="#798082"><path d="M7.6 15c-.4-.2-.9-.4-1.3-.7-1.4-.6-2.6-1.3-2.3-2.7.3-1.7 1.5-2.1 2.4-2.1.8 0 1.7.4 2.3.7.4.2.6.4.6.4l.4-2.2s-.9-.6-1.7-.8c-.8-.2-4.3-.9-6 2.2-1.8 3.3.7 5.5 2.8 6.6h.1c1.7.9 3.8 1.7 3.5 3.5-.3 1.7-1.8 2-2.7 2-1.2 0-3.3-1.2-3.3-1.2L1.7 23s.8.6 1.6.8c.8.2 5 .9 6.7-2.1 1.9-3.3-.3-5.6-2.4-6.7zm13.1-4.8H28V7.9h-9.7v15.8H28v-2.3h-7.3v-4.8h5.2v-2.3h-5.2zm20.2-2.3h-4v15.9h2.3v-6.5h3.6s4.4 0 4.4-4.9c-.1-4.8-6.3-4.5-6.3-4.5zm2 7.6h-3.7V9.7h2.6s3.4 0 3.4 2.9c-.1 2.5-2.3 2.9-2.3 2.9zm21.7-1.4h-8.2V7.9H54v15.8h2.4v-7.3h8.2v7.3h2.5V7.8h-2.5zm17.6-6.4c-4.5 0-8.2 3.7-8.2 8.2 0 4.5 3.7 8.2 8.2 8.2 4.5 0 8.2-3.7 8.2-8.2 0-4.6-3.7-8.2-8.2-8.2zm0 14c-3.2 0-5.8-2.6-5.8-5.8 0-3.2 2.6-5.8 5.8-5.8 3.2 0 5.8 2.6 5.8 5.8 0 3.2-2.6 5.8-5.8 5.8zm22.4-5.2s2.8-.7 2.8-4.3c0-4.7-5.4-4.3-5.4-4.3h-4.6v15.9h2.3v-6.9h2.4l4.9 6.9h2.7l-5.1-7.3zm-4.8-1.4V9.7h2.6s3.1 0 3.1 2.9c0 2.1-2 2.5-2 2.5h-3.7zm23.5-7.3h-2.1l-5.6 15.9h2.1l1.3-3.8h6.4l1.4 3.8h2.1l-5.6-15.9zm-3.9 10.8l2.3-7.8h.5l2.8 7.8h-5.6z"/></svg>