<svg xmlns="http://www.w3.org/2000/svg" viewBox="0 0 50.1 38.3" fill="#798082"><path d="M36 1.4v1.3c4.2 0 5 1 5 7.3v8.8L25.5 1.4H.9c.6.4 1.5 1.1 2.2 1.6h13.4c4.3.2 6.2 2.5 6.2 5.6 0 3.2-2 6.1-7.4 6.1H5.6v13.9h8.3v-1.3c-3.8 0-4.8-.9-4.9-5.5v-5.3h8.2c4.3 0 9-2 9.7-6.8l16.4 19V9.9c0-6.3.8-7.3 5-7.3V1.4H36z"/><path d="M22.8 16.9V20c0 6.3-.8 7.4-5 7.4v1.3h12.3v-1.3c-4.2 0-5-1.1-5-7.4v-4.6c-.7.9-1.6 1.3-2.3 1.5m18.9 18.7h-1.2c-.4 0-.9-.2-.9-.6 0-.6.9-.7 1.3-.7.9 0 1.2.1 1.9.5l.3-.5c-.6-.4-1.5-.6-2.2-.6-.8 0-1.9.3-1.9 1.3 0 .8.8 1.2 1.5 1.2h1.3c.5 0 1 .2 1 .7 0 .7-1 .8-1.5.8-.7 0-1.4-.2-2-.5-.1-.1-.2-.1-.3-.2l-.3.5c.4.3.7.4 1.2.6.5.1.9.2 1.4.2.9 0 2-.3 2-1.4.1-.9-.8-1.3-1.6-1.3m-35.5.9h2.1c.9 0 1.5-.4 1.5-1.3s-.6-1.4-1.5-1.4H5.6v4.3h.6v-1.6zm0-2.1h2.1c.6 0 1 .2 1 .8 0 .6-.4.8-1 .8H6.2v-1.6zm8.6.7c0-1-.8-1.3-1.6-1.3h-2.7v4.3h.5v-1.8h1.9l1.2 1.8h.7l-1.3-1.8c.7-.1 1.3-.5 1.3-1.2m-1.7.7H11v-1.4h2.1c.5 0 1.1.1 1.1.7s-.6.7-1.1.7m2.2.1c0 1.5 1.3 2.3 2.6 2.3 1.4 0 2.7-.8 2.7-2.3 0-1.5-1.3-2.4-2.7-2.4-1.3.1-2.6 1-2.6 2.4m2.6-1.7c1.1 0 2.1.6 2.1 1.8 0 1.1-1 1.7-2.1 1.7s-2.1-.6-2.1-1.8c0-1.1 1.1-1.7 2.1-1.7m4-.4h-.6v4.3h.6v-3.4l3 3.4h.6v-4.3h-.6v3.5zm7 0l-2.5 4.3h.6l.6-1.1h3l.6 1.1h.6l-2.4-4.3h-.5zm-1 2.7l1.2-2.1 1.2 2.1h-2.4zm4.8-2.7h.6v4.3h-.6zm2 0v4.3h3.4v-.6h-2.8v-3.7z"/></svg>