<svg xmlns="http://www.w3.org/2000/svg" xmlns:xlink="http://www.w3.org/1999/xlink" viewBox="0 0 1340 1328"><style>.st0{display:none}.st1{display:inline;fill:#f15b64}.st2{opacity:.13;fill:#fff}.st3{opacity:.5}.st3,.st4{fill:#fff}.st5{fill:url(#XMLID_152_)}</style><g id="background" class="st0"><path id="XMLID_145_" class="st1" d="M0 0h1340v1328H0z"/></g><g id="imagem" class="st0"><image id="XMLID_148_" xlink:href="../assets/img/background-hero.jpg" transform="translate(-625.98 -5.148) scale(1.367)" height="976" width="1920"/></g><g id="fundo_circular"><circle id="XMLID_146_" cy="662" cx="676" r="639" class="st2"/></g><g id="circulo"><path id="XMLID_105_" d="M676 59.9c81.3 0 160.1 15.9 234.3 47.3 71.7 30.3 136.1 73.7 191.4 129s98.7 119.7 129 191.4c31.4 74.2 47.3 153.1 47.3 234.3 0 81.3-15.9 160.1-47.3 234.3-30.3 71.7-73.7 136.1-129 191.4s-119.7 98.7-191.4 129c-74.2 31.4-153.1 47.3-234.3 47.3s-160.1-15.9-234.3-47.3c-71.7-30.3-136.1-73.7-191.4-129s-98.7-119.7-129-191.4C89.9 822.1 73.9 743.3 73.9 662s15.9-160.1 47.3-234.3c30.3-71.7 73.7-136.1 129-191.4s119.7-98.7 191.4-129C515.9 75.9 594.7 59.9 676 59.9m0-3.9c-81.8 0-161.2 16-235.9 47.6-72.2 30.5-137 74.2-192.6 129.9-55.7 55.7-99.4 120.5-129.9 192.6C86 500.8 70 580.2 70 662s16 161.2 47.6 235.9c30.5 72.2 74.2 137 129.9 192.6 55.7 55.7 120.5 99.4 192.6 129.9C514.8 1252 594.2 1268 676 1268s161.2-16 235.9-47.6c72.2-30.5 137-74.2 192.6-129.9 55.7-55.7 99.4-120.5 129.9-192.6C1266 823.2 1282 743.8 1282 662s-16-161.2-47.6-235.9c-30.5-72.2-74.2-137-129.9-192.6-55.7-55.7-120.5-99.4-192.6-129.9C837.2 72 757.8 56 676 56z" class="st3"/><path id="XMLID_102_" d="M676 37c84.4 0 166.2 16.5 243.3 49.1 37 15.7 72.7 35 106.2 57.6 33.1 22.4 64.2 48 92.5 76.3s54 59.4 76.3 92.5c22.6 33.4 42 69.1 57.6 106.2 32.6 77 49.1 158.9 49.1 243.3s-16.5 166.2-49.1 243.3c-15.7 37-35 72.7-57.6 106.2-22.4 33.1-48 64.2-76.3 92.5s-59.4 54-92.5 76.3c-33.4 22.6-69.1 42-106.2 57.6-77 32.6-158.9 49.1-243.3 49.1s-166.2-16.5-243.3-49.1c-37-15.7-72.7-35-106.2-57.6-33.1-22.4-64.2-48-92.5-76.3s-54-59.4-76.3-92.5c-22.6-33.4-42-69.1-57.6-106.2C67.5 828.2 51 746.4 51 662s16.5-166.2 49.1-243.3c15.7-37 35-72.7 57.6-106.2 22.4-33.1 48-64.2 76.3-92.5s59.4-54 92.5-76.3c33.4-22.6 69.1-42 106.2-57.6C509.8 53.5 591.6 37 676 37m0-14C323.1 23 37 309.1 37 662s286.1 639 639 639 639-286.1 639-639S1028.9 23 676 23z" class="st3"/></g><g id="logo"><g id="XMLID_58_"><path id="XMLID_79_" d="M331.7 605c17-6.9 32.8-24.1 32.8-46.5 0-14.7-5.4-27.7-15.1-37.3-9.5-9.3-22.6-14.1-36.7-14.1H275v160h53.1c17.7 0 31.1-13.5 31.1-31 0-14.3-9.4-28.8-27.5-31.1zM281 512h31.7c25.9 0 45.4 20.3 45.4 46.6 0 23.6-22.7 46.4-46.7 46.4H281v-93zm47.1 149H281v-50h44.3c16.3 0 27.7 10.4 27.7 25.5 0 14.1-10.7 24.5-24.9 24.5z" class="st4"/><path id="XMLID_10_" class="st4" d="M476 661h-69v-50h59v-6h-59v-92h67v-5h-73v159h75z"/><path id="XMLID_75_" d="M531.7 611h77.2l22.6 55.5.3.5h7.1l-65.8-159.5-.3-.5h-5l-65.2 158.7-.6 1.3h6.9l22.8-56zm38.6-95.2l36.2 89.2h-72.2l36-89.2z" class="st4"/><path id="XMLID_9_" d="M678.3 652.8c11.1 10.3 27.4 15.8 46 15.8 40.2 0 64.8-25 64.8-66.8V507h-6v94.8c0 38.7-21.6 60.8-58.5 60.8s-58.5-22.2-58.5-60.8V507h-7v94.8c-.1 22.2 6.7 39.3 19.2 51z" class="st4"/><path id="XMLID_8_" class="st4" d="M866 667h6V513h55v-5H813v5h53z"/><path id="XMLID_7_" class="st4" d="M1007 667h6v-57.2l63.4-102.8h-7.3l-58.8 96.5-58.9-96.2-.3-.3h-7.6l63.5 102.6z"/><path id="XMLID_69_" d="M318.1 726H275v144h5v-51h38.1c25.8 0 46.7-20.6 46.7-46.4 0-25.9-20.9-46.6-46.7-46.6zm0 88H280v-82h38.1c22.8 0 40.7 17.9 40.7 41.1 0 23.1-17.8 40.9-40.7 40.9z" class="st4"/><path id="XMLID_66_" d="M418.5 726h-4.6l-58.6 142.7-.6 1.3h6.4l20.5-51h69.2l20.3 50.1.3.9h6.6l-59.2-143.5-.3-.5zM384 814l32.2-79.7 32.4 79.7H384z" class="st4"/><path id="XMLID_4_" d="M585 772.8c0-25.9-21-46.8-46.7-46.8H495v144h6V732h37.2c22.8 0 40.7 17.9 40.7 41.1 0 23.1-17.9 40.9-40.7 40.9h-9.8l45.8 56h8l-41.8-50.5c24.8-1.2 44.6-21.6 44.6-46.7z" class="st4"/><path id="XMLID_3_" class="st4" d="M612 726h-6v144h68v-5h-62z"/><path id="XMLID_61_" d="M745.4 723.9c-40.8 0-73.9 33.2-73.9 73.9 0 40.8 33.2 73.9 73.9 73.9s73.9-33.2 73.9-73.9c.1-40.7-33.1-73.9-73.9-73.9zm0 142.4c-37.5 0-68-30.7-68-68.4s30.5-68.4 68-68.4 68 30.7 68 68.4-30.5 68.4-68 68.4z" class="st4"/><path id="XMLID_2_" d="M947 811.7c0 34.7-17.9 54.6-51 54.6s-51-19.9-51-54.6V726h-7v85.7c0 19.9 5.7 35.4 16.9 45.9 10 9.3 24.3 14.2 41.1 14.2 36.2 0 58-22.5 58-60.1V726h-7v85.7z" class="st4"/><path id="XMLID_1_" d="M1068.3 772.8c0-25.9-21-46.8-46.7-46.8H978v144h6V732h37.6c22.8 0 40.7 17.9 40.7 41.1 0 23.1-17.9 40.9-40.7 40.9h-9.8l45.8 56h8l-41.8-50.5c24.7-1.2 44.5-21.6 44.5-46.7z" class="st4"/></g><g id="XMLID_16_"><path id="XMLID_54_" d="M275.2 928.5h5.6c6.2 0 11.5 2 11.5 8 0 2.4-1 4.4-3.4 5.8 4.1.9 6.5 4 6.5 7.6 0 5.9-5.5 8.2-12.3 8.2h-8v-29.6zm3.8 13.1h1.5c4.3 0 8-.4 8-5 0-4.5-3.3-4.9-8-4.9H279v9.9zm0 13.4h3.8c4.3 0 8.8-.9 8.8-5.4 0-4.6-5.1-5.3-9.3-5.3H279V955z" class="st4"/><path id="XMLID_52_" d="M311 928.5h4.4l8.7 13.2 8.7-13.2h4.4L326 945.4v12.7h-3.8v-12.7L311 928.5z" class="st4"/><path id="XMLID_50_" d="M406.1 934.3c-1.4-2-3-3.2-5.9-3.2-3 0-5.7 1.9-5.7 4.6 0 2.5 3 3.7 5.4 4.6l2.3.9c4.5 1.7 8.2 3.6 8.2 8.3 0 5.2-4.8 9.1-10.8 9.1-5.5 0-9.6-3.1-10.7-7.6l3.7-.9c.5 3 3.2 5.5 6.9 5.5s7-2.4 7-5.8-3.1-4.6-6.3-5.9l-2.1-.8c-4-1.6-7.5-3.3-7.5-7.6 0-4.6 4.5-7.5 9.6-7.5 3.8 0 7 1.7 8.9 4.6l-3 1.7z" class="st4"/><path id="XMLID_47_" d="M436.8 949.7l-4.1 8.4h-4.2l15.8-31 15.4 31h-4.2l-4-8.4h-14.7zm7.4-14.9l-5.9 11.8H450l-5.8-11.8z" class="st4"/><path id="XMLID_44_" d="M484.8 958.1H481v-29.6h5c6.5 0 12.6 1.5 12.6 8.2 0 4.5-3.3 7.8-8.6 8.2l10.9 13.2h-4.7l-10.4-13h-1v13zm0-15.9h1.2c4.3 0 8.7-.7 8.7-5.3 0-4.9-4.1-5.3-8.7-5.3h-1.1v10.6z" class="st4"/><path id="XMLID_41_" d="M527.6 949.7l-4.1 8.4h-4.2l15.8-31 15.4 31h-4.2l-4-8.4h-14.7zm7.4-14.9l-5.9 11.8h11.6l-5.7-11.8z" class="st4"/><path id="XMLID_39_" d="M593.2 940.5v-12h3.8v29.6h-3.8v-14.5h-17.6v14.5h-3.8v-29.6h3.8v12h17.6z" class="st4"/><path id="XMLID_36_" d="M653.6 928.5h6.5c5.1 0 9.3.6 13.4 3.6 3.9 2.9 5.7 6.9 5.7 11.2s-1.8 8.1-5.6 11c-4.1 3.1-8.2 3.7-13.6 3.7h-6.4v-29.5zm6.6 26.5c4.2 0 7.7-.5 10.8-3.1 2.8-2.3 4.3-5.4 4.3-8.7 0-3.4-1.5-6.6-4.5-8.9-3.1-2.4-6.6-2.9-10.6-2.9h-2.8V955h2.8z" class="st4"/><path id="XMLID_34_" d="M700.5 928.5h17.8v3.1h-14v8.8h13.6v3.1h-13.6V955h14v3.1h-17.8v-29.6z" class="st4"/><path id="XMLID_31_" d="M778.6 949.7l-4.1 8.4h-4.2l15.8-31 15.4 31h-4.2l-4-8.4h-14.7zm7.4-14.9l-5.9 11.8h11.6l-5.7-11.8z" class="st4"/><path id="XMLID_29_" d="M826.5 955h9.5v3.1h-13.3v-29.6h3.8V955z" class="st4"/><path id="XMLID_27_" d="M862.9 926.9l12.5 24.8 12.5-24.8 7 31.2H891l-4.4-20h-.1l-11 21.2-11-21.2h-.1l-4.4 20h-4l6.9-31.2z" class="st4"/><path id="XMLID_25_" d="M919.5 928.5h17.8v3.1h-14v8.8h13.6v3.1h-13.6V955h14v3.1h-17.8v-29.6z" class="st4"/><path id="XMLID_23_" d="M967.7 958.1h-3.8v-29.6h3.8v29.6z" class="st4"/><path id="XMLID_20_" d="M994.9 928.5h6.5c5.1 0 9.3.6 13.4 3.6 3.9 2.9 5.7 6.9 5.7 11.2s-1.8 8.1-5.6 11c-4.1 3.1-8.2 3.7-13.6 3.7h-6.4v-29.5zm6.6 26.5c4.2 0 7.7-.5 10.8-3.1 2.8-2.3 4.3-5.4 4.3-8.7 0-3.4-1.5-6.6-4.5-8.9-3.1-2.4-6.6-2.9-10.6-2.9h-2.8V955h2.8z" class="st4"/><path id="XMLID_17_" d="M1047.1 949.7l-4.1 8.4h-4.2l15.8-31 15.4 31h-4.2l-4-8.4h-14.7zm7.4-14.9l-5.9 11.8h11.6l-5.7-11.8z" class="st4"/></g></g><g id="logomarca"><linearGradient id="XMLID_152_" y2="181.52" gradientUnits="userSpaceOnUse" x2="676.01" y1="448.15" x1="676.01"><stop stop-color="#fff" stop-opacity=".5" offset="0"/><stop stop-color="#fff" stop-opacity=".571" offset=".141"/><stop stop-color="#fff" offset="1"/></linearGradient><path id="XMLID_83_" d="M887.8 290.8c-47.3 8.1-80.7 15.9-106.7 27 2.6-16.9 4.4-36.6 5.7-60.2-10.8 7.1-20.4 13.5-28.9 19.5 1.4-32.6-2.5-62.5-15.2-80.9-16.9 14.3-30.5 28.8-41.4 43.6-6.7-20.7-15.3-40.4-24.8-58.3-9.5 18-18.2 37.7-24.9 58.4-10.9-14.9-24.5-29.4-41.5-43.8-11.6 28.6-15.9 55.7-15.3 80.7-8.6-6.3-18.3-12.7-29-19.2 1.3 23.5 2.9 43.2 5.5 60.1-26-11.1-59.7-18.9-106.9-27C533.7 465.9 621.5 425.2 676.5 448v.1h.2-.7s-.7 0-.7-.1c55.7-22.6 143.2 18 212.5-157.2zm-250.3 35.7c.3 24.3 4.7 48.4 14.6 71.4-12.3-22.9-24.4-40.2-39.3-53.8-4.8-15.4-7.4-30.9-7.9-46.4 9.1 6.7 17.2 13.5 24.3 20.3 3 2.8 5.7 5.6 8.3 8.5zm35.3 115.8c-.5-.6-1.1-1.2-1.7-1.9-11.7-13.2-35.9-40.7-51.5-77.8-1.4-3.2-2.6-6.5-3.8-9.7 10.4 8.8 19.6 19.9 28.6 34.2 10.1 16.1 19.6 35.8 28.4 55.2zm35.5-55.1c9-14.4 18.2-25.4 28.6-34.2-1.2 3.3-2.4 6.5-3.8 9.8-15.6 37.1-39.9 64.6-51.5 77.8-.6.7-1.2 1.3-1.7 1.9 8.8-19.5 18.3-39.3 28.4-55.3zm-29.9 58.4c11.5-13.4 44.9-48.1 64.6-97.5 7.5-5.6 16-10.4 25.8-14.7-3 19-7.6 34.3-15.1 47.6-6.6 11.7-15.6 22.1-28.3 32.7-11.4 9.5-25.9 19.4-47 31.9zm23-49.1c9.8-23.3 14-47.7 14.1-72.3 7.8-7.9 18-16.2 32.3-26.3-.5 15.4-3.1 30.8-7.9 46.2-14.6 13.3-26.5 30.2-38.5 52.4zm-4 6.4c-6.3 11.6-12.7 24.7-19 38.8 2.6-12.7 4.6-24.1 6.1-34.7 1.4-9.6 2.5-19.2 3.2-28.8 3.6-17.7 8.7-32 21-46.6.5-.6.9-1.1 1.4-1.7 1.1 26.4-3.2 50.9-12.7 73zm-9.2-33.1c1.1-24.8-.8-49.5-8-73.6 4.7-10.9 10.7-21.3 18-31.4 4.3 13.5 7.5 26.9 9.6 39.9.8 5.1 1.4 10.1 1.8 15-11.8 14.9-17.3 30-21.4 50.1zm-5.4-40.4c7.6 39.2 1 80.7-6.5 116.4-.1-.3-.3-.6-.4-1-5.3-42.3-1.6-80.6-32.7-122.2.4-5.9 1.1-11.9 2.1-18 2-13 5.2-26.4 9.5-39.8 2.7 3.7 5.2 7.5 7.5 11.3 10.1 16.7 16.8 34.1 20.5 53.3zm-26 24.1c12.3 23.2 14.1 45.4 16.1 68.9.6 6.6 1.1 13.3 1.9 20.1-6.2-13.5-12.7-27.4-19.3-39.7-9.2-21.4-13.5-45-12.8-70.5 5.5 7 10.2 13.9 14.1 21.2zm17.5 92c0 .1.1.2.1.3-21.1-12.7-35.7-22.6-47-32.1-12.7-10.6-21.7-21-28.3-32.7-7.6-13.3-12.1-28.5-15.2-47.6 9.8 4.3 18.3 9.1 25.9 14.7 19.7 49.4 53 84 64.5 97.4zm115.1-119.7c18.1-5.7 41-10.8 73.9-16.5-20.6 51.9-44.9 86.7-74.1 106.3-25.5 17.1-51 20.3-73.5 23-12.6 1.6-24.5 3-35.1 6.8 64.5-38.9 88.3-63.8 98.8-116.3 3.2-1.1 6.6-2.2 10-3.3zm-15.7-45.4c-.9 16.1-1.9 30.2-3.5 42.8-8.7 4.5-16.4 9.5-23.6 15.2 5-14.5 8.8-30.2 10.4-46.9 5.1-3.5 10.7-7.2 16.7-11.1zm-39.1-54.2c7.8 19.4 12.1 38.9 13.1 58.5-13.9 10.3-24.4 19.4-32.5 28.4-.9-19.6-4.3-39.2-9.4-58.1 8.2-9.9 17.8-19.5 28.8-28.8zm-58.2-12.8c6.6 12.4 12.3 25.1 17 37.9-7.2 11.4-12.8 22.9-17.1 34.6-4.3-11.7-9.9-23.2-17-34.5 4.8-12.7 10.6-25.5 17.1-38zm-58.3 12.7c11.1 9.4 20.7 19 29 29-5.3 19.8-8.8 40.2-9.5 60.7-8.5-10.1-19.1-20.5-32.6-31.1 1-19.6 5.3-39.2 13.1-58.6zM579 280.3c5.9 3.6 11.4 7.1 16.6 10.7 1.7 16.8 5.4 32.6 10.5 47.2-7.1-5.7-14.9-10.7-23.6-15.2-1.6-12.5-2.6-26.6-3.5-42.7zm-15.5 135.3c-28.7-20.4-53.4-54.4-74.1-106.3 33 5.7 55.8 10.7 73.9 16.5 3.4 1.1 6.7 2.2 9.9 3.4 10.4 52.5 34.3 77.4 98.7 116.2-10.6-3.7-22.4-5.5-34.9-6.7-25-2.4-49.2-5.8-73.5-23.1z" class="st5"/></g></svg>